name C:\Users\u0101727\Documents\MyRepositories\predictivesimulations\OpenSimModel\subject1\EMG\EMG_gait_61.mot
datacolumns 25
datarows 11
range 3.10600000 3.11600000
endheader
time	HamL_r	TA_r	PerL_r	GL_r	HamM_r	Sol_r	VL_r	VM_r	PerB_l	TA_l	PerL_l	GL_l	GM_l	Sol_l	VL_l	VM_l	AddL_l	RF_l	TFL_l	GluMed_l	HamL_l	HamM_l	GluMed_r	RF_r	
          3.10600000	          0.00384088	          0.00526481	          0.00394115	          0.00310807	          0.00401178	          0.01067831	          0.00402812	          0.00416478	          0.05611942	          0.01065450	          0.02875374	          0.02192267	          0.05694133	          0.07339051	          0.01461002	          0.00623135	          0.00775218	          0.00612000	          0.02104826	          0.01500204	          0.00696616	          0.00455132	          0.01367598	          0.00480620	
          3.10700000	          0.00383069	          0.00526376	          0.00393874	          0.00309704	          0.00400426	          0.01061396	          0.00403038	          0.00417843	          0.05625679	          0.01066905	          0.02858711	          0.02197847	          0.05761261	          0.07307130	          0.01419934	          0.00617782	          0.00774669	          0.00604675	          0.02083513	          0.01502773	          0.00712667	          0.00455456	          0.01348472	          0.00478377	
          3.10800000	          0.00382034	          0.00526058	          0.00393584	          0.00308657	          0.00399618	          0.01055436	          0.00403302	          0.00419196	          0.05639279	          0.01068238	          0.02844417	          0.02203427	          0.05828132	          0.07280235	          0.01379833	          0.00613179	          0.00773985	          0.00597756	          0.02062927	          0.01505486	          0.00729212	          0.00455897	          0.01329070	          0.00476207	
          3.10900000	          0.00380989	          0.00525513	          0.00393236	          0.00307662	          0.00398773	          0.01049992	          0.00403587	          0.00420529	          0.05652910	          0.01069470	          0.02832639	          0.02208985	          0.05894964	          0.07258530	          0.01340578	          0.00609303	          0.00773154	          0.00591215	          0.02043055	          0.01508234	          0.00746212	          0.00456440	          0.01309427	          0.00474097	
          3.11000000	          0.00379941	          0.00524735	          0.00392816	          0.00306710	          0.00397908	          0.01045100	          0.00403878	          0.00421829	          0.05666766	          0.01070630	          0.02823493	          0.02214506	          0.05961923	          0.07242125	          0.01302048	          0.00606129	          0.00772171	          0.00585040	          0.02023878	          0.01510911	          0.00763628	          0.00457072	          0.01289573	          0.00472037	
          3.11100000	          0.00378894	          0.00523720	          0.00392312	          0.00305794	          0.00397036	          0.01040794	          0.00404159	          0.00423079	          0.05681032	          0.01071749	          0.02817067	          0.02220000	          0.06029109	          0.07231078	          0.01264149	          0.00603635	          0.00771034	          0.00579233	          0.02005368	          0.01513418	          0.00781416	          0.00457774	          0.01269529	          0.00470011	
          3.11200000	          0.00377852	          0.00522474	          0.00391716	          0.00304904	          0.00396167	          0.01037099	          0.00404419	          0.00424262	          0.05695873	          0.01072854	          0.02813443	          0.02225481	          0.06096555	          0.07225400	          0.01226829	          0.00601804	          0.00769743	          0.00573804	          0.01987506	          0.01515666	          0.00799528	          0.00458529	          0.01249312	          0.00468000	
          3.11300000	          0.00376821	          0.00521011	          0.00391027	          0.00304029	          0.00395309	          0.01034031	          0.00404647	          0.00425357	          0.05711434	          0.01073974	          0.02812695	          0.02230960	          0.06164249	          0.07225058	          0.01190086	          0.00600626	          0.00768295	          0.00568758	          0.01970285	          0.01517595	          0.00817911	          0.00459314	          0.01228932	          0.00465989	
          3.11400000	          0.00375804	          0.00519343	          0.00390249	          0.00303160	          0.00394467	          0.01031593	          0.00404843	          0.00426349	          0.05727864	          0.01075132	          0.02814884	          0.02236433	          0.06232168	          0.07229975	          0.01153960	          0.00600090	          0.00766681	          0.00564099	          0.01953722	          0.01519170	          0.00836505	          0.00460109	          0.01208396	          0.00463968	
          3.11500000	          0.00374805	          0.00517484	          0.00389394	          0.00302292	          0.00393650	          0.01029775	          0.00405008	          0.00427223	          0.05745366	          0.01076352	          0.02820055	          0.02241883	          0.06300295	          0.07240065	          0.01118515	          0.00600188	          0.00764887	          0.00559828	          0.01937840	          0.01520385	          0.00855244	          0.00460893	          0.01187714	          0.00461941	
          3.11600000	          0.00373829	          0.00515441	          0.00388479	          0.00301424	          0.00392869	          0.01028555	          0.00405145	          0.00427973	          0.05764198	          0.01077658	          0.02828230	          0.02247290	          0.06368613	          0.07255284	          0.01083815	          0.00600917	          0.00762898	          0.00555947	          0.01922662	          0.01521242	          0.00874057	          0.00461652	          0.01166908	          0.00459926	
